<?xml version="1.0" standalone="no"?>
<svg xmlns:xlink="http://www.w3.org/1999/xlink" id="wave" style="transform:rotate(0deg); transition: 0.3s" viewBox="0 0 1440 490" version="1.1" xmlns="http://www.w3.org/2000/svg"><defs><linearGradient id="sw-gradient-0" x1="0" x2="0" y1="1" y2="0"><stop stop-color="rgba(10, 25, 47, 1)" offset="0%"/><stop stop-color="rgba(10, 25, 47, 1)" offset="100%"/></linearGradient></defs><path style="transform:translate(0, 0px); opacity:1" fill="url(#sw-gradient-0)" d="M0,0L80,73.5C160,147,320,294,480,310.3C640,327,800,212,960,138.8C1120,65,1280,33,1440,81.7C1600,131,1760,261,1920,269.5C2080,278,2240,163,2400,130.7C2560,98,2720,147,2880,204.2C3040,261,3200,327,3360,359.3C3520,392,3680,392,3840,351.2C4000,310,4160,229,4320,228.7C4480,229,4640,310,4800,334.8C4960,359,5120,327,5280,261.3C5440,196,5600,98,5760,122.5C5920,147,6080,294,6240,310.3C6400,327,6560,212,6720,138.8C6880,65,7040,33,7200,81.7C7360,131,7520,261,7680,302.2C7840,343,8000,294,8160,269.5C8320,245,8480,245,8640,236.8C8800,229,8960,212,9120,179.7C9280,147,9440,98,9600,106.2C9760,114,9920,180,10080,196C10240,212,10400,180,10560,196C10720,212,10880,278,11040,318.5C11200,359,11360,376,11440,383.8L11520,392L11520,490L11440,490C11360,490,11200,490,11040,490C10880,490,10720,490,10560,490C10400,490,10240,490,10080,490C9920,490,9760,490,9600,490C9440,490,9280,490,9120,490C8960,490,8800,490,8640,490C8480,490,8320,490,8160,490C8000,490,7840,490,7680,490C7520,490,7360,490,7200,490C7040,490,6880,490,6720,490C6560,490,6400,490,6240,490C6080,490,5920,490,5760,490C5600,490,5440,490,5280,490C5120,490,4960,490,4800,490C4640,490,4480,490,4320,490C4160,490,4000,490,3840,490C3680,490,3520,490,3360,490C3200,490,3040,490,2880,490C2720,490,2560,490,2400,490C2240,490,2080,490,1920,490C1760,490,1600,490,1440,490C1280,490,1120,490,960,490C800,490,640,490,480,490C320,490,160,490,80,490L0,490Z"/></svg>