<?xml version="1.0" standalone="no"?>
<svg xmlns:xlink="http://www.w3.org/1999/xlink" id="wave" style="transform:rotate(0deg); transition: 0.3s" viewBox="0 0 1440 490" version="1.1" xmlns="http://www.w3.org/2000/svg"><defs><linearGradient id="sw-gradient-0" x1="0" x2="0" y1="1" y2="0"><stop stop-color="rgba(178.015, 191.772, 216.615, 1)" offset="0%"/><stop stop-color="rgba(47.064, 221.87, 227.999, 1)" offset="100%"/></linearGradient></defs><path style="transform:translate(0, 0px); opacity:1" fill="url(#sw-gradient-0)" d="M0,0L60,73.5C120,147,240,294,360,334.8C480,376,600,310,720,261.3C840,212,960,180,1080,155.2C1200,131,1320,114,1440,106.2C1560,98,1680,98,1800,147C1920,196,2040,294,2160,285.8C2280,278,2400,163,2520,163.3C2640,163,2760,278,2880,310.3C3000,343,3120,294,3240,228.7C3360,163,3480,82,3600,40.8C3720,0,3840,0,3960,16.3C4080,33,4200,65,4320,114.3C4440,163,4560,229,4680,228.7C4800,229,4920,163,5040,122.5C5160,82,5280,65,5400,57.2C5520,49,5640,49,5760,65.3C5880,82,6000,114,6120,130.7C6240,147,6360,147,6480,138.8C6600,131,6720,114,6840,138.8C6960,163,7080,229,7200,261.3C7320,294,7440,294,7560,294C7680,294,7800,294,7920,253.2C8040,212,8160,131,8280,106.2C8400,82,8520,114,8580,130.7L8640,147L8640,490L8580,490C8520,490,8400,490,8280,490C8160,490,8040,490,7920,490C7800,490,7680,490,7560,490C7440,490,7320,490,7200,490C7080,490,6960,490,6840,490C6720,490,6600,490,6480,490C6360,490,6240,490,6120,490C6000,490,5880,490,5760,490C5640,490,5520,490,5400,490C5280,490,5160,490,5040,490C4920,490,4800,490,4680,490C4560,490,4440,490,4320,490C4200,490,4080,490,3960,490C3840,490,3720,490,3600,490C3480,490,3360,490,3240,490C3120,490,3000,490,2880,490C2760,490,2640,490,2520,490C2400,490,2280,490,2160,490C2040,490,1920,490,1800,490C1680,490,1560,490,1440,490C1320,490,1200,490,1080,490C960,490,840,490,720,490C600,490,480,490,360,490C240,490,120,490,60,490L0,490Z"/></svg>